#define previous.xbm_width 16
#define previous.xbm_height 16
static char previous.xbm_bits[] = {
   0x00, 0x00, 0x00, 0x00, 0xc0, 0x40, 0xe0, 0x60, 0xf0, 0x70, 0xf8, 0x78,
   0xfc, 0x7c, 0xfe, 0x7f, 0xfe, 0x7f, 0xfc, 0x7c, 0xf8, 0x78, 0xf0, 0x70,
   0xe0, 0x60, 0xc0, 0x40, 0x00, 0x00, 0x00, 0x00};
